<svg width="35" height="31" viewBox="0 0 35 31" fill="none" xmlns="http://www.w3.org/2000/svg">
<path d="M8.81699 26.075L5.16465 25.9023C4.73965 25.9156 4.32793 25.8359 3.95605 25.65C2.54824 25.1187 1.57871 23.8039 1.48574 22.2898L1.00762 17.2828C0.874803 15.1312 2.49512 13.3117 4.62012 13.1789C6.74512 13.0461 8.56465 14.6664 8.69746 16.7914L9.0023 20.0191C9.08854 20.9323 9.78488 21.6697 10.6916 21.8081L10.8889 21.8383C11.8053 21.9844 12.4693 22.7679 12.4959 23.6976V29.2359" stroke="#FF7643" stroke-width="2" stroke-linecap="round"/>
<path d="M26.0492 26.075L29.7016 25.9023C30.1266 25.9156 30.5383 25.8359 30.9102 25.65C32.318 25.1187 33.2875 23.8039 33.3805 22.2898L33.8586 17.2828C33.9914 15.1312 32.3711 13.3117 30.2461 13.1789C28.1211 13.0461 26.3016 14.6664 26.1688 16.7914L25.8639 20.0191C25.7777 20.9323 25.0813 21.6697 24.1746 21.8081L23.9773 21.8383C23.0609 21.9844 22.3969 22.7679 22.3703 23.6976V29.2359" stroke="#FF7643" stroke-width="2" stroke-linecap="round"/>
<path d="M27.3281 8.21167C27.3281 9.5586 28.4343 10.6648 29.7812 10.6648C31.1282 10.6648 32.2344 9.5586 32.2344 8.21167C32.2344 6.86474 31.1282 5.75854 29.7812 5.75854C28.4343 5.75854 27.3281 6.86474 27.3281 8.21167Z" stroke="#FF7643" stroke-width="2" stroke-linecap="round"/>
<path d="M2 8.21167C2 9.5586 3.10619 10.6648 4.45312 10.6648C5.80006 10.6648 6.90625 9.5586 6.90625 8.21167C6.90625 6.86474 5.80006 5.75854 4.45312 5.75854C3.10619 5.75854 2 6.86474 2 8.21167Z" stroke="#FF7643" stroke-width="2" stroke-linecap="round"/>
<path d="M24.1832 10.0312V1.70391C24.1832 1.31875 23.8645 1 23.4793 1H11.2605C10.8754 1 10.5566 1.31875 10.5566 1.70391V10.0312C10.5566 10.4164 10.8754 10.7352 11.2605 10.7352H13.8454C14.3758 10.7352 14.8845 10.9459 15.2596 11.3209L16.9051 12.9664C17.0379 13.0992 17.1973 13.1656 17.3699 13.1656C17.5426 13.1656 17.702 13.0992 17.8348 12.9664L19.4802 11.3209C19.8553 10.9459 20.364 10.7352 20.8944 10.7352H23.4793C23.8777 10.7352 24.1832 10.4164 24.1832 10.0312Z" stroke="#FF7643" stroke-width="2" stroke-linecap="round"/>
</svg>
