<svg width="19" height="19" viewBox="0 0 19 19" fill="none" xmlns="http://www.w3.org/2000/svg">
<path d="M18 10.2658C17.8511 11.8768 17.2465 13.4122 16.2569 14.6921C15.2672 15.9721 13.9336 16.9437 12.4119 17.4934C10.8902 18.043 9.24341 18.1479 7.66427 17.7958C6.08513 17.4437 4.63893 16.6492 3.49489 15.5051C2.35084 14.3611 1.55628 12.9149 1.20417 11.3357C0.852061 9.75659 0.956966 8.10983 1.50661 6.58814C2.05626 5.06644 3.02791 3.73275 4.30788 2.74313C5.58784 1.75351 7.12318 1.14888 8.73423 1C7.79101 2.27607 7.33713 3.8483 7.45513 5.43073C7.57314 7.01317 8.2552 8.50069 9.37725 9.62275C10.4993 10.7448 11.9868 11.4269 13.5693 11.5449C15.1517 11.6629 16.7239 11.209 18 10.2658Z" stroke="#333333" stroke-width="2" stroke-linecap="round" stroke-linejoin="round"/>
</svg>
