<svg width="741" height="127" viewBox="0 0 741 127" fill="none" xmlns="http://www.w3.org/2000/svg">
<path d="M30.904 124H54.16V25.792H84.328V5.19999H0.808V25.792H30.904V124ZM125.518 126.304C133.678 126.304 141.022 124.648 147.55 121.336C154.078 117.976 159.238 113.368 163.03 107.512C166.87 101.608 168.79 94.816 168.79 87.136C168.79 79.456 166.87 72.688 163.03 66.832C159.238 60.928 154.078 56.32 147.55 53.008C141.022 49.648 133.678 47.968 125.518 47.968C117.406 47.968 110.062 49.648 103.486 53.008C96.9576 56.32 91.7736 60.928 87.9336 66.832C84.1416 72.688 82.2456 79.456 82.2456 87.136C82.2456 94.816 84.1416 101.608 87.9336 107.512C91.7736 113.368 96.9576 117.976 103.486 121.336C110.062 124.648 117.406 126.304 125.518 126.304ZM125.518 107.44C121.774 107.44 118.366 106.576 115.294 104.848C112.27 103.12 109.87 100.744 108.094 97.72C106.318 94.648 105.43 91.12 105.43 87.136C105.43 83.152 106.318 79.648 108.094 76.624C109.87 73.552 112.27 71.152 115.294 69.424C118.366 67.696 121.774 66.832 125.518 66.832C129.31 66.832 132.718 67.696 135.742 69.424C138.814 71.152 141.238 73.552 143.014 76.624C144.838 79.648 145.75 83.152 145.75 87.136C145.75 91.12 144.838 94.648 143.014 97.72C141.238 100.744 138.814 103.12 135.742 104.848C132.718 106.576 129.31 107.44 125.518 107.44ZM213.073 126.304C216.049 126.304 219.073 125.92 222.145 125.152C225.265 124.384 228.073 123.328 230.569 121.984L225.025 104.272C222.961 105.808 220.753 106.576 218.401 106.576C214.081 106.576 211.921 103.744 211.921 98.08V67.048H228.121V50.272H211.921V22.624H189.817V50.272H179.953V67.048H189.817V99.664C189.817 108.064 191.857 114.616 195.937 119.32C200.065 123.976 205.777 126.304 213.073 126.304ZM280.135 126.304C285.175 126.304 289.879 125.272 294.247 123.208C298.663 121.096 302.551 118.12 305.911 114.28V124H328.015V50.272H305.911V59.272C302.983 55.72 299.263 52.96 294.751 50.992C290.239 48.976 285.367 47.968 280.135 47.968C273.031 47.968 266.719 49.696 261.199 53.152C255.727 56.56 251.431 61.216 248.311 67.12C245.191 72.976 243.631 79.6 243.631 86.992C243.631 94.576 245.263 101.344 248.527 107.296C251.791 113.2 256.159 117.856 261.631 121.264C267.151 124.624 273.319 126.304 280.135 126.304ZM286.687 107.512C280.975 107.512 276.247 105.592 272.503 101.752C268.759 97.912 266.887 93.04 266.887 87.136C266.887 81.232 268.759 76.36 272.503 72.52C276.295 68.68 281.023 66.76 286.687 66.76C292.399 66.76 297.103 68.68 300.799 72.52C304.543 76.312 306.415 81.184 306.415 87.136C306.415 93.088 304.567 97.984 300.871 101.824C297.175 105.616 292.447 107.512 286.687 107.512ZM354.016 124H376.12V0.159998H354.016V124Z" fill="#FF7643"/>
<path d="M420.254 126.304C431.342 126.304 440.03 123.184 446.318 116.944C452.606 110.704 455.75 101.92 455.75 90.592V5.19999H432.422V84.544C432.422 90.592 431.006 95.344 428.174 98.8C425.39 102.256 421.502 103.984 416.51 103.984C411.086 103.984 405.422 101.248 399.518 95.776L391.742 115.072C399.71 122.56 409.214 126.304 420.254 126.304ZM520.393 126.304C528.553 126.304 535.897 124.648 542.425 121.336C548.953 117.976 554.113 113.368 557.905 107.512C561.745 101.608 563.665 94.816 563.665 87.136C563.665 79.456 561.745 72.688 557.905 66.832C554.113 60.928 548.953 56.32 542.425 53.008C535.897 49.648 528.553 47.968 520.393 47.968C512.281 47.968 504.937 49.648 498.361 53.008C491.833 56.32 486.649 60.928 482.809 66.832C479.017 72.688 477.121 79.456 477.121 87.136C477.121 94.816 479.017 101.608 482.809 107.512C486.649 113.368 491.833 117.976 498.361 121.336C504.937 124.648 512.281 126.304 520.393 126.304ZM520.393 107.44C516.649 107.44 513.241 106.576 510.169 104.848C507.145 103.12 504.745 100.744 502.969 97.72C501.193 94.648 500.305 91.12 500.305 87.136C500.305 83.152 501.193 79.648 502.969 76.624C504.745 73.552 507.145 71.152 510.169 69.424C513.241 67.696 516.649 66.832 520.393 66.832C524.185 66.832 527.593 67.696 530.617 69.424C533.689 71.152 536.113 73.552 537.889 76.624C539.713 79.648 540.625 83.152 540.625 87.136C540.625 91.12 539.713 94.648 537.889 97.72C536.113 100.744 533.689 103.12 530.617 104.848C527.593 106.576 524.185 107.44 520.393 107.44ZM631.259 126.304C637.931 126.304 644.003 124.648 649.475 121.336C654.995 117.976 659.387 113.344 662.651 107.44C665.915 101.536 667.547 94.768 667.547 87.136C667.547 79.648 665.939 72.952 662.723 67.048C659.555 61.144 655.187 56.488 649.619 53.08C644.099 49.672 637.787 47.968 630.683 47.968C625.547 47.968 620.771 48.976 616.355 50.992C611.939 52.96 608.267 55.72 605.339 59.272V0.159998H583.235V124H605.339V114.28C608.603 118.072 612.467 121.024 616.931 123.136C621.395 125.248 626.171 126.304 631.259 126.304ZM624.635 107.512C618.827 107.512 614.051 105.616 610.307 101.824C606.611 97.984 604.763 93.136 604.763 87.28C604.763 81.328 606.635 76.432 610.379 72.592C614.171 68.704 618.923 66.76 624.635 66.76C630.299 66.76 634.979 68.704 638.675 72.592C642.419 76.432 644.291 81.328 644.291 87.28C644.291 93.136 642.443 97.984 638.747 101.824C635.099 105.616 630.395 107.512 624.635 107.512ZM708.037 126.304C718.213 126.304 726.133 124.144 731.797 119.824C737.509 115.456 740.365 109.264 740.365 101.248C740.365 96.88 739.549 93.4 737.917 90.808C736.285 88.168 734.029 86.032 731.149 84.4C728.317 82.768 725.053 81.28 721.357 79.936C719.101 79.12 716.725 78.232 714.229 77.272C711.781 76.264 709.693 75.112 707.965 73.816C706.285 72.52 705.445 71.032 705.445 69.352C705.445 67.528 706.261 66.016 707.893 64.816C709.525 63.616 711.709 63.016 714.445 63.016C719.293 63.016 724.837 65.008 731.077 68.992L738.637 54.808C729.517 50.344 721.405 48.112 714.301 48.112C708.445 48.112 703.261 49.096 698.749 51.064C694.285 53.032 690.781 55.768 688.237 59.272C685.693 62.728 684.421 66.736 684.421 71.296C684.421 75.088 685.261 78.208 686.941 80.656C688.669 83.056 690.901 85.048 693.637 86.632C696.373 88.216 699.229 89.632 702.205 90.88C707.389 93.04 711.205 94.744 713.653 95.992C716.101 97.192 717.325 99.208 717.325 102.04C717.325 104.584 716.461 106.552 714.733 107.944C713.053 109.288 710.821 109.96 708.037 109.96C701.221 109.96 694.645 106.6 688.309 99.88L679.021 114.712C685.645 122.44 695.317 126.304 708.037 126.304Z" fill="#121212"/>
</svg>
