<svg width="24" height="25" viewBox="0 0 24 25" fill="none" xmlns="http://www.w3.org/2000/svg">
<path d="M3 21.9985V23.5985C3 23.8193 3.18327 23.9985 3.40909 23.9985H20.5909C20.8167 23.9985 21 23.8193 21 23.5985V21.9985" stroke="#FF7643" stroke-width="2" stroke-linecap="round"/>
<path d="M1 20.4969C1 20.7731 1.22386 20.9969 1.5 20.9969H22.5C22.7761 20.9969 23 20.7731 23 20.4969V18.4931C23 17.6649 22.327 16.9908 21.5 16.9908H16.5C16.4015 16.9908 16.3055 16.9618 16.2235 16.9072C12.0705 14.144 13.944 10.0037 15.1835 7.26404C15.6035 6.33613 16 5.45979 16 4.97255C16 2.24289 13.926 1 11.9985 1C10.073 1 8 2.24289 8 4.97255C8 5.46229 8.3985 6.34013 8.8205 7.26955C10.062 10.0047 11.938 14.138 7.777 16.9072C7.6945 16.9618 7.5985 16.9908 7.5 16.9908H2.5C1.673 16.9908 1 17.6649 1 18.4931V20.4969Z" stroke="#FF7643" stroke-width="2" stroke-linecap="round"/>
</svg>
