<svg width="17" height="17" viewBox="0 0 17 17" fill="none" xmlns="http://www.w3.org/2000/svg">
<path d="M8.5 16C12.6421 16 16 12.6421 16 8.5C16 4.35786 12.6421 1 8.5 1C4.35786 1 1 4.35786 1 8.5C1 12.6421 4.35786 16 8.5 16Z" stroke="#B0B0B0" stroke-width="1.5" stroke-linecap="round" stroke-linejoin="round"/>
<path d="M6.31763 6.25002C6.49395 5.74877 6.84199 5.3261 7.30009 5.05686C7.75819 4.78763 8.2968 4.68922 8.82051 4.77905C9.34422 4.86888 9.81924 5.14116 10.1614 5.54766C10.5036 5.95416 10.6909 6.46866 10.6901 7.00002C10.6901 8.50002 8.44013 9.25002 8.44013 9.25002" stroke="#B0B0B0" stroke-width="1.5" stroke-linecap="round" stroke-linejoin="round"/>
<path d="M8.5 12.25H8.5075" stroke="#B0B0B0" stroke-width="1.5" stroke-linecap="round" stroke-linejoin="round"/>
</svg>
