<svg width="20" height="24" viewBox="0 0 20 24" fill="none" xmlns="http://www.w3.org/2000/svg">
<path d="M1 2L1 21.7988C1 22.2434 1.53684 22.4669 1.85232 22.1536L4.73689 19.2891C5.12259 18.906 5.74362 18.9013 6.13517 19.2783L9.28433 22.3108C9.68033 22.6922 10.3099 22.6823 10.6938 22.2888L13.6088 19.3007C13.9886 18.9113 14.61 18.897 15.0074 19.2684L18.1586 22.2136C18.4781 22.5122 19 22.2856 19 21.8483L19 2C19 1.44772 18.5523 1 18 1L2 1C1.44772 1 1 1.44772 1 2Z" stroke="#FF7643" stroke-width="2" stroke-linecap="round"/>
<path d="M12.528 5.51C12.7013 5.51 12.8313 5.58367 12.918 5.731C13.0133 5.87833 13.022 6.02567 12.944 6.173L8.914 14.337C8.69733 14.779 8.342 15 7.848 15H7.64C7.46667 15 7.33233 14.9263 7.237 14.779C7.15033 14.6317 7.146 14.4843 7.224 14.337L11.254 6.173C11.4707 5.731 11.826 5.51 12.32 5.51H12.528ZM12.71 13.362C12.8227 13.5353 12.9873 13.622 13.204 13.622C13.4207 13.622 13.581 13.5353 13.685 13.362C13.7977 13.1887 13.854 12.8897 13.854 12.465C13.854 12.0403 13.7977 11.7413 13.685 11.568C13.581 11.3947 13.4207 11.308 13.204 11.308C12.9873 11.308 12.8227 11.3947 12.71 11.568C12.606 11.7413 12.554 12.0403 12.554 12.465C12.554 12.8897 12.606 13.1887 12.71 13.362ZM11.28 10.502C11.7393 10.034 12.3807 9.8 13.204 9.8C14.0273 9.8 14.6643 10.034 15.115 10.502C15.5743 10.97 15.804 11.6243 15.804 12.465C15.804 13.3057 15.5743 13.96 15.115 14.428C14.6643 14.896 14.0273 15.13 13.204 15.13C12.3807 15.13 11.7393 14.896 11.28 14.428C10.8293 13.96 10.604 13.3057 10.604 12.465C10.604 11.6243 10.8293 10.97 11.28 10.502ZM6.47 8.942C6.58267 9.11533 6.74733 9.202 6.964 9.202C7.18067 9.202 7.341 9.11533 7.445 8.942C7.55767 8.76867 7.614 8.46967 7.614 8.045C7.614 7.62033 7.55767 7.32133 7.445 7.148C7.341 6.97467 7.18067 6.888 6.964 6.888C6.74733 6.888 6.58267 6.97467 6.47 7.148C6.366 7.32133 6.314 7.62033 6.314 8.045C6.314 8.46967 6.366 8.76867 6.47 8.942ZM8.875 6.082C9.33433 6.55 9.564 7.20433 9.564 8.045C9.564 8.88567 9.33433 9.54 8.875 10.008C8.42433 10.476 7.78733 10.71 6.964 10.71C6.14067 10.71 5.49933 10.476 5.04 10.008C4.58933 9.54 4.364 8.88567 4.364 8.045C4.364 7.20433 4.58933 6.55 5.04 6.082C5.49933 5.614 6.14067 5.38 6.964 5.38C7.78733 5.38 8.42433 5.614 8.875 6.082Z" fill="#FF7643"/>
</svg>
